<?xml version="1.0" encoding="utf-8"?>
<!-- Generator: Adobe Illustrator 22.0.0, SVG Export Plug-In . SVG Version: 6.00 Build 0)  -->
<svg version="1.1" id="Capa_1" xmlns="http://www.w3.org/2000/svg" x="0px"
     y="0px"
     viewBox="0 0 67 65" style="enable-background:new 0 0 67 65;" xml:space="preserve">
<style type="text/css">
	.st0{fill:#41AA54;}
	.st1{fill:blue;}
</style>
    <path class="st0" d="M34.2,0c-4.7,0-8.8,2.5-11.1,6.2c-1.5-0.6-3.1-0.9-4.8-0.9c-7.2,0-13.1,5.8-13.1,13c0,1.7,0.3,3.3,0.9,4.8
	C2.5,25.4,0,29.5,0,34.2C0,40.5,4.5,45.8,10.5,47c0,0.7,0.1,1.5,0.3,2.3c0.5,1.9,1.6,3.8,3.8,5.4c2.7,2,5.5,2.9,8,3.1
	C21.5,55.9,20.6,54,20,52c-0.8-0.3-1.6-0.8-2.5-1.4c-1.3-0.9-1.7-1.7-1.9-2.5c-0.2-0.7-0.2-1.4-0.2-2.4c0-0.3,0-0.6,0-1
	c0-1.4-1.1-2.5-2.5-2.5c-4.4,0-8-3.6-8-8.1c0-3.5,2.3-6.5,5.5-7.6c0.7-0.3,1.3-0.8,1.5-1.6c0.2-0.7,0.1-1.5-0.3-2.2
	c-0.9-1.3-1.4-2.8-1.4-4.5c0-4.5,3.6-8.1,8.1-8.1c1.7,0,3.2,0.5,4.5,1.4c0.6,0.4,1.4,0.5,2.2,0.3c0.7-0.2,1.3-0.8,1.6-1.5
	C27.7,7.2,30.7,5,34.2,5c3.5,0,6.5,2.3,7.6,5.4c0.3,0.7,0.8,1.3,1.6,1.5c0.7,0.2,1.5,0.1,2.2-0.3c1.3-0.9,2.8-1.4,4.5-1.4
	c4.5,0,8.1,3.6,8.1,8.1c0,0.4,0,0.8-0.1,1.1c1.6,0.9,3,1.9,4.4,3c0.4-1.3,0.7-2.7,0.7-4.2c0-7.2-5.9-13-13.1-13
	c-1.7,0-3.3,0.3-4.8,0.9C43,2.5,38.9,0,34.2,0z"/>
    <path class="st0" d="M38.9,55.4c-10.5,0-19-8.5-19-19s8.5-19,19-19s19,8.5,19,19c0,4.4-1.5,8.4-4,11.7l12.8,12.8l-3.4,3.4L50.5,51.4
	C47.3,53.9,43.3,55.4,38.9,55.4z"/>
    <ellipse transform="matrix(0.2298 -0.9732 0.9732 0.2298 -5.4763 65.862)" class="st1" cx="38.9" cy="36.4" rx="14.3"
             ry="14.3"/>
</svg>
