<svg width="14" height="14" viewBox="0 0 14 14" fill="none" xmlns="http://www.w3.org/2000/svg">
<path fill-rule="evenodd" clip-rule="evenodd" d="M9.58829 1.1665C9.97022 1.1665 10.3363 1.319 10.6037 1.5885L12.4126 3.39736C12.6819 3.66667 12.8332 4.03194 12.8332 4.4128C12.8332 4.79366 12.6819 5.15893 12.4126 5.42824L5.80838 12.0304C5.40093 12.5004 4.82336 12.7891 4.16169 12.8345H1.1665V12.2512L1.1684 9.79243C1.21809 9.17732 1.50406 8.60536 1.94029 8.221L8.57215 1.5892C8.84107 1.31865 9.20679 1.1665 9.58829 1.1665ZM4.12052 11.6693C4.43215 11.6473 4.72223 11.5022 4.95516 11.2358L9.36627 6.82467L7.17622 4.63454L2.73926 9.07044C2.50292 9.27946 2.35671 9.5719 2.3332 9.83941V11.6682L4.12052 11.6693ZM8.00128 3.80968L10.1912 5.99972L11.5877 4.60329C11.6382 4.55277 11.6666 4.48425 11.6666 4.41281C11.6666 4.34136 11.6382 4.27284 11.5877 4.22232L9.77718 2.41184C9.72723 2.3615 9.65924 2.33318 9.58832 2.33318C9.51739 2.33318 9.4494 2.3615 9.39945 2.41184L8.00128 3.80968Z" fill="#41AA54"/>
</svg>
