<svg width="15" height="15" viewBox="0 0 15 15" fill="none" xmlns="http://www.w3.org/2000/svg">
<path fill-rule="evenodd" clip-rule="evenodd" d="M4.50002 3H3.00002V2.25H1.49998V4.5H13.5V2.25H12V3H10.5V2.25H4.50002V3ZM13.5 6H1.49998V13.5H13.5V6ZM10.5 0.750004H4.50002V0H3.00002V0.750004H1.5C0.671573 0.750004 0 1.42158 0 2.25V13.5C0 14.3284 0.671573 15 1.5 15H13.5C14.3284 15 15 14.3284 15 13.5V2.25C15 1.42158 14.3284 0.750004 13.5 0.750004H12V0H10.5V0.750004ZM5.24998 9H3.74998V7.5H5.24998V9ZM6.75 9H8.25V7.5H6.75V9ZM11.25 9H9.75002V7.5H11.25V9ZM3.74998 12H5.24998V10.5H3.74998V12ZM8.25 12H6.75V10.5H8.25V12Z" fill="#3F793B"/>
</svg>
