<svg width="50" height="56" viewBox="0 0 50 56" fill="none" xmlns="http://www.w3.org/2000/svg">
<path fill-rule="evenodd" clip-rule="evenodd" d="M35.1501 13.0654L36.7574 10.7319C37.1436 10.1712 37.3657 9.50405 37.3657 8.78401C37.3657 6.874 35.7901 5.27995 33.7773 5.27995C33.0201 5.27995 32.3328 5.50268 31.7626 5.88281L29.4668 7.41311L28.5424 4.81352C28.0543 3.44089 26.7352 2.44704 25.1803 2.44704C23.6124 2.44704 22.2989 3.43951 21.8114 4.8125L20.8879 7.4139L18.5909 5.88281C18.0206 5.50268 17.3334 5.27995 16.5762 5.27995C14.5651 5.27995 12.9914 6.87229 12.9914 8.78401C12.9914 9.51498 13.2092 10.1756 13.5887 10.7296L15.1821 13.0561L12.5174 13.9782C11.0884 14.4727 10.1056 15.7793 10.1056 17.2687C10.1056 19.182 11.6738 20.7728 13.6692 20.7728H15.8204V22.9241C15.8204 24.8478 17.3779 26.4281 19.3628 26.4281C19.5042 26.4281 19.5632 26.4192 19.5807 26.4162C19.5929 26.4141 19.6151 26.4102 19.6865 26.3848L21.5162 25.7342L22.3501 27.4879C22.831 28.4993 24.0223 29.3379 25.5556 29.3379C27.0461 29.3379 28.2161 28.5411 28.7197 27.5611L29.3786 26.2792L30.8148 26.4009C31.8081 26.4851 33.1609 26.089 33.8543 25.4188C34.3099 24.9768 34.4835 24.3465 34.4835 22.9206V20.7645L36.6395 20.7693C38.6382 20.7737 40.2059 19.2021 40.2232 17.3085L40.2232 17.3068C40.2382 15.7907 39.2623 14.4792 37.8296 13.9866L35.1501 13.0654ZM9.94114 13.0146C8.72884 14.0456 7.95435 15.5633 7.95435 17.2687C7.95435 20.3881 10.5037 22.9241 13.6692 22.9241C13.6692 26.0434 16.1973 28.5794 19.3628 28.5794C19.8301 28.5794 20.1028 28.52 20.4073 28.4117C21.2677 30.2211 23.247 31.4891 25.5556 31.4891C27.8075 31.4891 29.7408 30.2805 30.6331 28.5445C32.1167 28.6702 34.1243 28.1497 35.3494 26.9656C36.4708 25.8798 36.628 24.457 36.6345 23.02C36.6347 22.9869 36.6347 22.9537 36.6347 22.9206C36.6435 22.9206 36.6523 22.9206 36.6611 22.9206C39.8003 22.9136 42.3461 20.4248 42.3743 17.3281C42.3915 15.6004 41.6242 14.0616 40.4029 13.0204C39.8587 12.5565 39.2243 12.1913 38.529 11.9522C38.9353 11.3625 39.2317 10.694 39.3888 9.97492C39.4727 9.59095 39.5169 9.19256 39.5169 8.78401C39.5169 5.65419 36.9463 3.12868 33.7773 3.12868C33.3572 3.12868 32.948 3.17268 32.5542 3.25653C31.8328 3.41011 31.1626 3.69736 30.5694 4.09277C30.3249 3.40524 29.9508 2.77669 29.4758 2.23738C28.4305 1.05047 26.8966 0.295776 25.1803 0.295776C23.4562 0.295776 21.9214 1.04915 20.8764 2.23661C20.402 2.7758 20.0285 3.40448 19.7841 4.09277C19.1909 3.69735 18.5207 3.41009 17.7992 3.25652C17.4054 3.17268 16.9963 3.12868 16.5762 3.12868C13.4072 3.12868 10.8401 5.65419 10.8401 8.78401C10.8401 9.18964 10.8824 9.58443 10.9633 9.96477C11.1166 10.6849 11.4083 11.3532 11.8138 11.9453C11.1213 12.1849 10.4869 12.5504 9.94114 13.0146Z" fill="#258B20"/>
<path fill-rule="evenodd" clip-rule="evenodd" d="M15.2619 32.8185C16.8579 32.4292 18.6997 32.4137 20.2495 33.3079C22.0531 34.3486 23.4229 34.6371 23.7919 34.6683H30.617C30.7566 34.6683 30.895 34.6955 31.0243 34.7484C31.4867 34.9376 32.1337 35.3162 32.6817 35.8812C33.2348 36.4514 33.7608 37.2932 33.7608 38.3764C33.7608 39.4767 33.2187 40.2891 32.6268 40.8187C32.0515 41.3333 31.3778 41.6343 30.9 41.7646C30.8078 41.7898 30.7126 41.8025 30.617 41.8025H23.3489C23.3127 41.83 23.2693 41.8689 23.2267 41.9214C23.1399 42.0285 23.0438 42.2069 23.0438 42.5133C23.0438 42.8196 23.1399 42.998 23.2267 43.1051C23.2693 43.1576 23.3127 43.1965 23.3489 43.224H32.8575C35.3367 41.1434 40.3814 36.9337 42.9182 34.904C44.3937 33.7235 45.7645 33.3367 46.9571 33.5694C48.1198 33.7961 48.8816 34.5692 49.2387 35.236C49.4531 35.6361 49.3932 36.1277 49.089 36.4647C47.0527 38.7205 42.298 44.0635 39.5326 47.4272C36.6412 50.9441 33.7886 51.9923 32.3876 51.9565H14.8839L11.9067 54.849C11.4849 55.2588 10.8123 55.2539 10.3965 54.8381L1.27771 45.7183C1.07284 45.5134 0.959296 45.2345 0.962786 44.9448C0.966276 44.6551 1.08651 44.379 1.29625 44.1791C3.95175 41.6483 9.65287 36.2355 11.098 34.9423C12.1325 34.0166 13.6578 33.2098 15.2619 32.8185ZM15.7717 34.9085C14.4851 35.2224 13.2842 35.8729 12.5325 36.5455C11.2482 37.6947 6.44782 42.2455 3.57826 44.9766L11.1681 52.5672L13.6979 50.1094C13.8987 49.9144 14.1676 49.8053 14.4475 49.8053H32.4031C32.4151 49.8053 32.427 49.8055 32.439 49.8059C32.9255 49.8221 35.2109 49.2964 37.8708 46.061C40.3967 42.9886 44.5375 38.3132 46.8196 35.7705C46.7365 35.7314 46.645 35.7003 46.5453 35.6808C46.1632 35.6063 45.4188 35.6583 44.2621 36.5838C41.6416 38.6804 36.293 43.1473 33.9411 45.1232C33.7473 45.286 33.5023 45.3752 33.2492 45.3752H23.0963C22.9806 45.3752 22.8658 45.3566 22.7561 45.32C22.0397 45.0812 20.8925 44.2008 20.8925 42.5133C20.8925 40.8257 22.0397 39.9453 22.7561 39.7065C22.8658 39.6699 22.9806 39.6513 23.0963 39.6513H30.4527C30.665 39.5748 30.9542 39.4285 31.1924 39.2154C31.4622 38.9741 31.6095 38.7053 31.6095 38.3764C31.6095 38.0306 31.4461 37.6971 31.1375 37.3789C30.8929 37.1267 30.6038 36.9356 30.3806 36.8195H23.7543C23.7333 36.8195 23.7122 36.8189 23.6912 36.8177C22.9526 36.7742 21.2368 36.3612 19.1744 35.1713C18.28 34.6552 17.0665 34.5927 15.7717 34.9085Z" fill="#258B20"/>
</svg>
