<?xml version="1.0" encoding="utf-8"?>
<!-- Generator: Adobe Illustrator 22.0.0, SVG Export Plug-In . SVG Version: 6.00 Build 0)  -->
<svg version="1.1" id="Capa_1" xmlns="http://www.w3.org/2000/svg" xmlns:xlink="http://www.w3.org/1999/xlink" x="0px" y="0px"
	 viewBox="0 0 18 17" style="enable-background:new 0 0 18 17;" xml:space="preserve">
<style type="text/css">
	.st0{fill:#959595;}
</style>
<path class="st0" d="M8.9,3c2,0,3.8,1,5.6,2.7c0.6,0.6,1.1,1.2,1.6,1.8c0.3,0.4,0.5,0.7,0.6,0.8l0.2,0.4l-0.2,0.4
	c-0.1,0.2-0.3,0.5-0.6,0.8c-0.5,0.6-1,1.2-1.6,1.8c-1.7,1.7-3.6,2.7-5.6,2.7s-3.8-1-5.6-2.7c-0.6-0.6-1.1-1.2-1.6-1.8
	C1.4,9.5,1.2,9.3,1.1,9.1L0.9,8.7l0.2-0.4c0.1-0.2,0.3-0.5,0.6-0.8c0.5-0.6,1-1.2,1.6-1.8C5.1,4,7,3,8.9,3z M15,8.4
	c-0.4-0.6-0.9-1.1-1.5-1.6C12,5.4,10.4,4.5,8.9,4.5S5.8,5.3,4.3,6.7c-0.5,0.5-1,1.1-1.4,1.7C2.8,8.5,2.7,8.6,2.6,8.7
	C2.7,8.8,2.8,8.9,2.9,9c0.4,0.6,0.9,1.2,1.4,1.7C5.8,12.1,7.4,13,8.9,13s3.1-0.8,4.6-2.3c0.5-0.5,1-1.1,1.5-1.6
	c0.1-0.1,0.2-0.2,0.3-0.3C15.1,8.6,15.1,8.5,15,8.4z M6,8.7c0,1.6,1.3,2.8,2.9,2.8s2.9-1.3,2.9-2.8c0-1.6-1.3-2.8-2.9-2.8
	S6,7.1,6,8.7z M10.4,8.7c0,0.8-0.6,1.4-1.4,1.4S7.5,9.5,7.5,8.7s0.6-1.4,1.4-1.4S10.4,7.9,10.4,8.7z"/>
</svg>
