<?xml version="1.0" encoding="utf-8"?>
<!-- Generator: Adobe Illustrator 22.0.0, SVG Export Plug-In . SVG Version: 6.00 Build 0)  -->
<svg version="1.1" id="Capa_1" xmlns="http://www.w3.org/2000/svg" xmlns:xlink="http://www.w3.org/1999/xlink" x="0px" y="0px"
	 viewBox="0 0 15 15" style="enable-background:new 0 0 15 15;" xml:space="preserve">
<style type="text/css">
	.st0{fill:#41AA54;}
	.st1{fill:#FFFFFF;}
</style>
<path class="st0" d="M8.2,11.4L7.5,12l-0.7-0.6c-2.4-2.1-3.7-4-3.7-5.8c0-2.5,1.9-4.4,4.4-4.4s4.4,1.9,4.4,4.4
	C11.9,7.4,10.6,9.3,8.2,11.4z"/>
<path class="st0" d="M3.6,9.3c0.3,0.4,0.5,0.7,0.9,1.1c-1.2,0.3-1.9,0.6-1.9,0.9c0,0.5,2.2,1.3,5,1.3c2.8,0,5-0.7,5-1.3
	c0-0.3-0.7-0.7-1.9-0.9c0.3-0.4,0.6-0.7,0.9-1.1c1.4,0.4,2.3,1.1,2.3,2c0,1.6-2.8,2.5-6.3,2.5c-3.5,0-6.3-0.9-6.3-2.5
	C1.3,10.4,2.1,9.7,3.6,9.3z"/>
<path class="st1" d="M7.5,2.5c1.8,0,3.1,1.3,3.1,3.1c0,1.3-1,2.9-3.1,4.7C5.4,8.5,4.4,6.9,4.4,5.6C4.4,3.8,5.7,2.5,7.5,2.5z"/>
<circle class="st0" cx="7.5" cy="5.6" r="1.9"/>
<g>
	<circle class="st1" cx="7.5" cy="5.6" r="0.6"/>
</g>
</svg>
