<svg width="24" height="24" viewBox="0 0 24 24" fill="none" xmlns="http://www.w3.org/2000/svg">
<path fill-rule="evenodd" clip-rule="evenodd" d="M21.685 10.9167C21.1867 6.39918 17.6008 2.81334 13.0833 2.31501V0.0833435H10.9167V2.31501C6.39916 2.81334 2.81333 6.39918 2.31499 10.9167H0.0833282V13.0833H2.31499C2.81333 17.6008 6.39916 21.1867 10.9167 21.685V23.9167H13.0833V21.685C17.6008 21.1867 21.1867 17.6008 21.685 13.0833H23.9167V10.9167H21.685ZM12 7.66668C9.60583 7.66668 7.66666 9.60584 7.66666 12C7.66666 14.3942 9.60583 16.3333 12 16.3333C14.3942 16.3333 16.3333 14.3942 16.3333 12C16.3333 9.60584 14.3942 7.66668 12 7.66668ZM4.41666 12C4.41666 16.1925 7.80749 19.5833 12 19.5833C16.1925 19.5833 19.5833 16.1925 19.5833 12C19.5833 7.80751 16.1925 4.41668 12 4.41668C7.80749 4.41668 4.41666 7.80751 4.41666 12Z" fill="#41AA54"/>
</svg>
