<svg width="67" height="65" viewBox="0 0 67 65" fill="none" xmlns="http://www.w3.org/2000/svg">
<path fill-rule="evenodd" clip-rule="evenodd" d="M34.2264 0C29.5205 0 25.4452 2.49306 23.161 6.19497C21.6764 5.60987 20.0603 5.28981 18.3695 5.28981C11.1575 5.28981 5.31503 11.1139 5.31503 18.338C5.31503 20.0273 5.62964 21.6396 6.21411 23.125C2.51114 25.41 0 29.4822 0 34.1949C0 40.5307 4.51295 45.8395 10.5225 47.0051C10.5497 47.7321 10.6255 48.5223 10.8108 49.2923C11.2761 51.2261 12.3823 53.0692 14.587 54.6566C17.3016 56.6111 20.0479 57.5132 22.551 57.708C21.4864 55.9384 20.6137 54.035 19.9625 52.0282C19.1629 51.6957 18.3329 51.2388 17.4865 50.6294C16.2235 49.7201 15.8165 48.8836 15.6355 48.1315C15.4574 47.391 15.4677 46.7058 15.4823 45.7378C15.4867 45.4421 15.4916 45.12 15.4916 44.7619C15.4916 43.3916 14.3807 42.2807 13.0104 42.2807C8.56655 42.2807 4.96238 38.6619 4.96238 34.1949C4.96238 30.6843 7.23653 27.7015 10.4142 26.5871C11.1404 26.3325 11.7073 25.7553 11.9489 25.0247C12.1905 24.294 12.0794 23.4927 11.6481 22.8553C10.7745 21.5641 10.2774 20.0297 10.2774 18.338C10.2774 13.8603 13.8923 10.2522 18.3695 10.2522C20.0553 10.2522 21.6041 10.7586 22.8949 11.6304C23.5328 12.0612 24.3345 12.1716 25.0651 11.9291C25.7956 11.6866 26.3723 11.1188 26.6261 10.3921C27.7319 7.2248 30.7081 4.96238 34.2264 4.96238C37.7225 4.96238 40.7024 7.22204 41.8152 10.3953C42.0704 11.1229 42.6493 11.6905 43.3818 11.9313C44.1142 12.1721 44.917 12.0587 45.5541 11.6244C46.8291 10.7553 48.373 10.2522 50.0643 10.2522C54.5434 10.2522 58.1627 13.8622 58.1627 18.338C58.1627 18.7227 58.1357 19.1009 58.0834 19.4709C59.6344 20.3408 61.0917 21.3638 62.4358 22.5201C62.882 21.2074 63.1251 19.8007 63.1251 18.338C63.1251 11.1119 57.2744 5.28981 50.0643 5.28981C48.3772 5.28981 46.7607 5.60614 45.2746 6.19209C42.9883 2.49398 38.9185 0 34.2264 0Z" fill="#41AA54"/>
<path fill-rule="evenodd" clip-rule="evenodd" d="M38.872 55.4132C28.3662 55.4132 19.8495 46.8966 19.8495 36.3908C19.8495 25.885 28.3662 17.3683 38.872 17.3683C49.3778 17.3683 57.8944 25.885 57.8944 36.3908C57.8944 40.7867 56.4033 44.8343 53.8994 48.0555L66.7092 60.8653L63.3465 64.2281L50.5366 51.4182C47.3155 53.9222 43.2678 55.4132 38.872 55.4132ZM53.1388 36.3908C53.1388 44.2701 46.7513 50.6576 38.872 50.6576C30.9926 50.6576 24.6051 44.2701 24.6051 36.3908C24.6051 28.5114 30.9926 22.1239 38.872 22.1239C46.7513 22.1239 53.1388 28.5114 53.1388 36.3908Z" fill="#41AA54"/>
</svg>
