<svg width="10" height="11" viewBox="0 0 10 11" fill="none" xmlns="http://www.w3.org/2000/svg">
<path fill-rule="evenodd" clip-rule="evenodd" d="M3.55971 0.400391H6.43971C6.9699 0.400391 7.39971 0.830197 7.39971 1.36039V1.84023H8.83971C9.3699 1.84023 9.79971 2.27004 9.79971 2.80023V3.76023C9.79971 4.29043 9.3699 4.72023 8.83971 4.72023H8.80106L8.35953 10.0002C8.35953 10.5303 7.92973 10.9602 7.39954 10.9602H2.59953C2.06934 10.9602 1.63953 10.5303 1.64119 10.04L1.19788 4.72023H1.15971C0.629514 4.72023 0.199707 4.29043 0.199707 3.76023V2.80023C0.199707 2.27004 0.629514 1.84023 1.15971 1.84023H2.59971V1.36039C2.59971 0.830197 3.02951 0.400391 3.55971 0.400391ZM1.15928 2.80039H2.59971H7.39971H8.83928V3.76039H1.15928V2.80039ZM2.59952 10.0003L2.16104 4.72031H7.83786L7.40118 9.96045L7.39952 10.0003H2.59952ZM6.43947 1.36016V1.84016H3.55947V1.36016H6.43947ZM3.22041 6.01984L3.89923 5.34102L4.99982 6.4416L6.10041 5.34102L6.77923 6.01984L5.67864 7.12043L6.77923 8.22102L6.10041 8.89984L4.99982 7.79925L3.89923 8.89984L3.22041 8.22102L4.321 7.12043L3.22041 6.01984Z" fill="#41AA54"/>
</svg>
