<svg id="Capa_1" data-name="Capa 1" xmlns="http://www.w3.org/2000/svg" viewBox="0 0 13.3 14">
    <title>Limpiar</title>
    <path d="M11.42,0a1.93,1.93,0,0,1,1.33.53,2,2,0,0,1,.42.63,2,2,0,0,1,.13.75,2,2,0,0,1-.14.71,1.86,1.86,0,0,1-.4.6l-.14.13-.07.06-.48.4L9.26,6.17l-.08.08a1.88,1.88,0,0,1,.44.64,2.05,2.05,0,0,1,0,1.54,1.88,1.88,0,0,1-.44.64l-.07.08-.87.68a10.37,10.37,0,0,1-2.89,1.93,1,1,0,0,1-.55.05,1,1,0,0,1-.49-.26l-4-4.14A1,1,0,0,1,0,7a1,1,0,0,1,0-.51A.91.91,0,0,1,.37,6a1,1,0,0,1,.51-.2,4.54,4.54,0,0,0,2.5-1,.48.48,0,0,1,.21-.19L4.31,4a2,2,0,0,1,2.13-.39,2,2,0,0,1,.64.44A.3.3,0,0,0,7.16,4L9.5,1.18,9.9.7,10,.62h0l.08-.09A1.93,1.93,0,0,1,11.42,0ZM1,6.78l4,4A9.54,9.54,0,0,0,7.55,9.13L4,5.53A5.68,5.68,0,0,1,1,6.78ZM12,2.59l.08-.08a.94.94,0,0,0,.26-.63,1,1,0,0,0-.22-.65.72.72,0,0,0-.29-.2.91.91,0,0,0-.7,0,.83.83,0,0,0-.3.2l-.06.07-.06.06-.4.48L8,4.64A1.25,1.25,0,0,1,7.53,5,1.29,1.29,0,0,1,7,5.16a.53.53,0,0,1-.25,0A.57.57,0,0,1,6.53,5L6.37,4.8A1.11,1.11,0,0,0,6,4.58a1,1,0,0,0-.39-.08,1.08,1.08,0,0,0-.74.3l-.17.13L8.31,8.52l.19-.14A1.13,1.13,0,0,0,8.73,8a1,1,0,0,0,.07-.39,1.05,1.05,0,0,0-.07-.4,1.13,1.13,0,0,0-.23-.34l-.17-.16c-.38-.41-.12-1,.33-1.37L11.45,3l.48-.39ZM12.42,14V12.78H.24V14Z"
          transform="translate(0 0)" fill="#41aa54"/>
</svg>
