<svg width="17" height="17" viewBox="0 0 17 17" fill="none" xmlns="http://www.w3.org/2000/svg">
<path d="M0.082615 14.4481C0.00490159 14.6727 -0.0184365 14.9126 0.0145165 15.1479C0.0474695 15.3833 0.135774 15.6075 0.272182 15.8022C0.454205 16.0407 0.693776 16.2292 0.968477 16.35C1.24318 16.4708 1.54403 16.5199 1.84288 16.4927H14.9771C15.2728 16.5137 15.5689 16.4602 15.8386 16.3372C16.1082 16.2142 16.3428 16.0256 16.5207 15.7886C16.652 15.5915 16.7361 15.3669 16.7666 15.1321C16.7971 14.8973 16.7732 14.6587 16.6968 14.4346C16.2677 13.2675 15.5991 12.2031 14.7339 11.3099C13.8687 10.4167 12.8261 9.71458 11.6733 9.24858C12.4409 8.58332 12.987 7.69933 13.2381 6.71505C13.4893 5.73077 13.4337 4.69323 13.0787 3.74145C12.7237 2.78968 12.0862 1.96915 11.2518 1.38981C10.4174 0.810472 9.42583 0.5 8.41 0.5C7.39417 0.5 6.40261 0.810472 5.56819 1.38981C4.73376 1.96915 4.09633 2.78968 3.74132 3.74145C3.3863 4.69323 3.33066 5.73077 3.58185 6.71505C3.83305 7.69933 4.37907 8.58332 5.14675 9.24858C3.98546 9.71207 2.93454 10.4145 2.06213 11.3102C1.18973 12.2059 0.515314 13.275 0.082615 14.4481ZM6.92055 10.1287C7.10011 10.1449 7.27873 10.089 7.41712 9.9735C7.55552 9.85796 7.64234 9.69217 7.6585 9.51262C7.67467 9.33306 7.61883 9.15443 7.50329 9.01604C7.38776 8.87765 7.22197 8.79082 7.04241 8.77466C6.26051 8.4602 5.61245 7.88339 5.20943 7.14323C4.80642 6.40307 4.67359 5.54572 4.83374 4.71831C4.99389 3.8909 5.43703 3.14503 6.08712 2.60871C6.73721 2.07239 7.55369 1.77906 8.39646 1.77906C9.23923 1.77906 10.0557 2.07239 10.7058 2.60871C11.3559 3.14503 11.799 3.8909 11.9592 4.71831C12.1193 5.54572 11.9865 6.40307 11.5835 7.14323C11.1805 7.88339 10.5324 8.4602 9.75051 8.77466C9.57095 8.79082 9.40516 8.87765 9.28963 9.01604C9.17409 9.15443 9.11825 9.33306 9.13442 9.51262C9.15058 9.69217 9.2374 9.85796 9.3758 9.9735C9.51419 10.089 9.69281 10.1449 9.87237 10.1287C11.1232 10.3784 12.2901 10.9418 13.2635 11.766C14.2369 12.5902 14.985 13.6482 15.4375 14.8408C15.4551 14.8935 15.4551 14.9505 15.4375 15.0033C15.4375 15.0845 15.2209 15.1251 15.0042 15.1251H1.84288C1.54499 15.1251 1.40958 15.0439 1.35542 14.9085C1.79844 13.7033 2.54234 12.6315 3.5164 11.7949C4.49047 10.9583 5.66231 10.3847 6.92055 10.1287Z" fill="#959595"/>
</svg>
