<svg width="15" height="15" viewBox="0 0 15 15" fill="none" xmlns="http://www.w3.org/2000/svg">
<path fill-rule="evenodd" clip-rule="evenodd" d="M13.125 0.625H4.37501C3.68751 0.625 3.12501 1.1875 3.12501 1.875V10.625C3.12501 11.3125 3.68751 11.875 4.37501 11.875H13.125C13.8125 11.875 14.375 11.3125 14.375 10.625V1.875C14.375 1.1875 13.8125 0.625 13.125 0.625ZM1.875 3.12501H0.625V13.125C0.625 13.8125 1.1875 14.375 1.875 14.375H11.875V13.125H1.875V3.12501ZM4.375 10.625H13.125V1.87499H4.375V10.625Z" fill="#41AA54"/>
<path d="M9.45761 8.28641C9.24016 8.34348 9.06614 8.49254 8.97284 8.68521C8.91867 8.57353 8.83688 8.47545 8.73287 8.40143C8.53515 8.26073 8.28156 8.22439 8.05227 8.30391C7.96795 8.33315 7.90126 8.35952 7.84869 8.38094C7.82646 8.39 7.81048 8.39658 7.7982 8.40164C7.78655 8.40644 7.77824 8.40986 7.7711 8.41272C7.60248 8.40695 7.46391 8.27433 7.46391 8.0806C7.46391 7.66639 7.12812 7.3306 6.71391 7.3306C6.52181 7.3306 6.375 7.1779 6.375 6.99828C6.375 6.86582 6.46232 6.73806 6.60663 6.6879C6.82714 6.61125 6.99938 6.4363 7.07257 6.21462C7.14576 5.99294 7.11155 5.74982 6.98003 5.55694C6.94528 5.50598 6.92485 5.44551 6.92485 5.37448C6.92485 5.19707 7.07079 5.04216 7.26781 5.04216C7.34297 5.04216 7.40804 5.0639 7.4618 5.09989C7.65429 5.22876 7.89552 5.26145 8.11536 5.18847C8.3352 5.11548 8.50898 4.94501 8.58618 4.72661C8.63326 4.59342 8.75901 4.5 8.90724 4.5C9.05265 4.5 9.17977 4.59335 9.22708 4.72696C9.30436 4.94526 9.47815 5.11562 9.69795 5.18853C9.91775 5.26144 10.1589 5.22872 10.3513 5.09989C10.4053 5.06376 10.4697 5.04216 10.5453 5.04216C10.7436 5.04216 10.8896 5.19827 10.8896 5.37448C10.8896 5.44327 10.8692 5.50469 10.8336 5.55663C10.7013 5.74952 10.6665 5.99307 10.7397 6.21523C10.8128 6.4374 10.9853 6.61274 11.2063 6.68939C11.3519 6.73991 11.4386 6.86768 11.4375 7.00262L12.1875 7.00898L11.4375 7.00217C11.4359 7.18064 11.2914 7.32969 11.0995 7.32927C10.9003 7.32882 10.7092 7.40764 10.5681 7.54834C10.4271 7.68904 10.3479 7.88006 10.3479 8.07926C10.3479 8.14321 10.3468 8.19196 10.3437 8.23365C10.3406 8.27468 10.3362 8.30031 10.3325 8.31581C10.3319 8.31817 10.3314 8.32021 10.3309 8.32195C10.318 8.33213 10.2927 8.3488 10.2516 8.36586C10.2007 8.387 10.1435 8.4012 10.0915 8.40693C9.91338 8.27646 9.6816 8.22761 9.45761 8.28641Z" stroke="#41AA54" stroke-width="1.5" stroke-linejoin="round"/>
</svg>
